<svg xmlns="http://www.w3.org/2000/svg" viewBox="0 0 512 512" width="512" height="512">
  <defs>
    <linearGradient id="bg" x1="0%" y1="0%" x2="100%" y2="100%">
      <stop offset="0%" stop-color="#3b82f6"/>
      <stop offset="100%" stop-color="#7c3aed"/>
    </linearGradient>
  </defs>
  <rect width="512" height="512" rx="80" fill="url(#bg)"/>
  <!-- Block grid -->
  <rect x="80" y="60" width="76" height="76" rx="10" fill="rgba(255,255,255,0.9)"/>
  <rect x="168" y="60" width="76" height="76" rx="10" fill="rgba(255,255,255,0.6)"/>
  <rect x="256" y="60" width="76" height="76" rx="10" fill="rgba(255,255,255,0.3)"/>
  <rect x="80" y="148" width="76" height="76" rx="10" fill="rgba(255,255,255,0.6)"/>
  <rect x="168" y="148" width="76" height="76" rx="10" fill="rgba(255,255,255,0.9)"/>
  <rect x="256" y="148" width="76" height="76" rx="10" fill="rgba(255,255,255,0.5)"/>
  <rect x="344" y="148" width="76" height="76" rx="10" fill="rgba(255,255,255,0.3)"/>
  <rect x="80" y="236" width="76" height="76" rx="10" fill="rgba(255,255,255,0.3)"/>
  <rect x="168" y="236" width="76" height="76" rx="10" fill="rgba(255,255,255,0.5)"/>
  <rect x="256" y="236" width="76" height="76" rx="10" fill="rgba(255,255,255,0.8)"/>
  <rect x="344" y="236" width="76" height="76" rx="10" fill="rgba(255,255,255,0.6)"/>
  <!-- Title -->
  <text x="256" y="410" text-anchor="middle" font-family="system-ui, -apple-system, sans-serif" font-weight="800" font-size="80" fill="white">STACKR</text>
  <text x="256" y="465" text-anchor="middle" font-family="system-ui, -apple-system, sans-serif" font-weight="600" font-size="40" fill="rgba(255,255,255,0.8)">QUEST</text>
</svg>
