<svg xmlns="http://www.w3.org/2000/svg" viewBox="0 0 192 192" width="192" height="192">
  <defs>
    <linearGradient id="bg" x1="0%" y1="0%" x2="100%" y2="100%">
      <stop offset="0%" stop-color="#3b82f6"/>
      <stop offset="100%" stop-color="#7c3aed"/>
    </linearGradient>
  </defs>
  <rect width="192" height="192" rx="32" fill="url(#bg)"/>
  <!-- Block grid -->
  <rect x="30" y="24" width="30" height="30" rx="4" fill="rgba(255,255,255,0.9)"/>
  <rect x="66" y="24" width="30" height="30" rx="4" fill="rgba(255,255,255,0.6)"/>
  <rect x="102" y="24" width="30" height="30" rx="4" fill="rgba(255,255,255,0.3)"/>
  <rect x="30" y="60" width="30" height="30" rx="4" fill="rgba(255,255,255,0.6)"/>
  <rect x="66" y="60" width="30" height="30" rx="4" fill="rgba(255,255,255,0.9)"/>
  <rect x="102" y="60" width="30" height="30" rx="4" fill="rgba(255,255,255,0.5)"/>
  <rect x="138" y="60" width="30" height="30" rx="4" fill="rgba(255,255,255,0.3)"/>
  <rect x="30" y="96" width="30" height="30" rx="4" fill="rgba(255,255,255,0.3)"/>
  <rect x="66" y="96" width="30" height="30" rx="4" fill="rgba(255,255,255,0.5)"/>
  <rect x="102" y="96" width="30" height="30" rx="4" fill="rgba(255,255,255,0.8)"/>
  <rect x="138" y="96" width="30" height="30" rx="4" fill="rgba(255,255,255,0.6)"/>
  <!-- Title -->
  <text x="96" y="162" text-anchor="middle" font-family="system-ui, -apple-system, sans-serif" font-weight="800" font-size="36" fill="white">STACKR</text>
</svg>
